<svg xmlns="http://www.w3.org/2000/svg" xmlns:xlink="http://www.w3.org/1999/xlink" width="264" height="378" viewBox="0 0 264 378"><rect width="100%" height="100%" fill="#2B3945"/><path d="M59.20 198.12L66.07 198.12Q66.81 198.12 67.24 198.54Q67.68 198.95 67.68 199.64L67.68 199.64L67.68 202.38L49.32 202.38L49.32 200.86Q49.32 200.40 49.52 199.89Q49.71 199.38 50.14 198.97L50.14 198.97L58.26 190.83Q59.28 189.80 60.08 188.85Q60.89 187.91 61.42 186.98Q61.96 186.06 62.25 185.11Q62.53 184.15 62.53 183.10L62.53 183.10Q62.53 182.14 62.26 181.41Q61.98 180.67 61.47 180.18Q60.96 179.68 60.25 179.43Q59.54 179.18 58.65 179.18L58.65 179.18Q57.83 179.18 57.14 179.41Q56.45 179.64 55.91 180.06Q55.37 180.47 55.00 181.03Q54.63 181.58 54.45 182.25L54.45 182.25Q54.13 183.10 53.63 183.38Q53.13 183.65 52.19 183.51L52.19 183.51L49.79 183.08Q50.06 181.16 50.86 179.70Q51.65 178.25 52.85 177.28Q54.04 176.31 55.59 175.82Q57.13 175.33 58.91 175.33L58.91 175.33Q60.76 175.33 62.29 175.87Q63.83 176.42 64.92 177.42Q66.01 178.42 66.62 179.82Q67.23 181.23 67.23 182.95L67.23 182.95Q67.23 184.43 66.80 185.69Q66.36 186.95 65.63 188.09Q64.90 189.24 63.92 190.31Q62.94 191.39 61.87 192.50L61.87 192.50L55.84 198.66Q56.71 198.40 57.57 198.26Q58.43 198.12 59.20 198.12L59.20 198.12ZM86.97 175.62L79.03 185.34L78.11 186.48Q78.89 186.10 79.78 185.88Q80.68 185.67 81.72 185.67L81.72 185.67Q83.23 185.67 84.67 186.17Q86.10 186.67 87.19 187.68Q88.28 188.69 88.95 190.18Q89.62 191.68 89.62 193.68L89.62 193.68Q89.62 195.55 88.93 197.19Q88.25 198.82 87.01 200.04Q85.77 201.27 84.02 201.97Q82.27 202.67 80.16 202.67L80.16 202.67Q78.02 202.67 76.32 201.99Q74.61 201.30 73.41 200.07Q72.21 198.84 71.57 197.11Q70.93 195.38 70.93 193.27L70.93 193.27Q70.93 191.39 71.70 189.40Q72.47 187.41 74.08 185.26L74.08 185.26L80.46 176.70Q80.79 176.25 81.43 175.94Q82.07 175.62 82.90 175.62L82.90 175.62L86.97 175.62ZM80.07 198.93L80.07 198.93Q81.16 198.93 82.08 198.56Q82.99 198.19 83.65 197.53Q84.31 196.86 84.68 195.97Q85.05 195.07 85.05 194.01L85.05 194.01Q85.05 192.87 84.70 191.95Q84.34 191.03 83.70 190.40Q83.05 189.76 82.14 189.43Q81.24 189.09 80.14 189.09L80.14 189.09Q79.05 189.09 78.17 189.46Q77.28 189.83 76.65 190.49Q76.02 191.15 75.67 192.04Q75.32 192.94 75.32 193.98L75.32 193.98Q75.32 195.09 75.62 196.00Q75.93 196.92 76.53 197.57Q77.13 198.21 78.02 198.57Q78.91 198.93 80.07 198.93ZM95.87 192.29L104.01 192.29L104.01 183.54Q104.01 182.30 104.18 180.80L104.18 180.80L95.87 192.29ZM107.99 192.29L111.35 192.29L111.35 194.94Q111.35 195.31 111.11 195.58Q110.87 195.84 110.43 195.84L110.43 195.84L107.99 195.84L107.99 202.38L104.01 202.38L104.01 195.84L92.72 195.84Q92.26 195.84 91.91 195.56Q91.56 195.27 91.47 194.85L91.47 194.85L90.99 192.53L103.66 175.61L107.99 175.61L107.99 192.29ZM140.75 196.25L138.33 198.64L132.06 192.37L125.73 198.68L123.30 196.29L129.63 189.94L123.60 183.91L126.01 181.51L132.04 187.54L138.03 181.54L140.47 183.95L134.46 189.96L140.75 196.25ZM156.14 183.51L153.74 183.08Q154.02 181.16 154.81 179.70Q155.61 178.25 156.80 177.28Q157.99 176.31 159.54 175.82Q161.08 175.33 162.86 175.33L162.86 175.33Q164.71 175.33 166.20 175.86Q167.69 176.38 168.74 177.32Q169.80 178.25 170.36 179.51Q170.92 180.77 170.92 182.23L170.92 182.23Q170.92 183.51 170.64 184.48Q170.35 185.45 169.81 186.17Q169.28 186.89 168.48 187.39Q167.69 187.89 166.69 188.22L166.69 188.22Q169.09 188.98 170.28 190.54Q171.46 192.09 171.46 194.44L171.46 194.44Q171.46 196.44 170.72 197.97Q169.98 199.51 168.72 200.55Q167.46 201.60 165.81 202.13Q164.15 202.67 162.30 202.67L162.30 202.67Q160.29 202.67 158.79 202.21Q157.29 201.75 156.18 200.84Q155.07 199.93 154.29 198.62Q153.52 197.31 152.96 195.59L152.96 195.59L154.98 194.75Q155.77 194.42 156.47 194.58Q157.16 194.73 157.47 195.33L157.47 195.33Q157.81 195.97 158.21 196.60Q158.60 197.23 159.16 197.72Q159.71 198.21 160.46 198.52Q161.21 198.82 162.25 198.82L162.25 198.82Q163.41 198.82 164.28 198.44Q165.15 198.06 165.73 197.45Q166.32 196.84 166.60 196.09Q166.89 195.35 166.89 194.59L166.89 194.59Q166.89 193.63 166.69 192.84Q166.48 192.05 165.84 191.50Q165.19 190.94 163.98 190.63Q162.77 190.31 160.73 190.31L160.73 190.31L160.73 187.06Q162.41 187.04 163.52 186.74Q164.63 186.45 165.29 185.92Q165.95 185.39 166.21 184.65Q166.47 183.91 166.47 183.02L166.47 183.02Q166.47 181.14 165.41 180.16Q164.36 179.18 162.60 179.18L162.60 179.18Q161.79 179.18 161.10 179.41Q160.42 179.64 159.87 180.06Q159.32 180.47 158.95 181.03Q158.58 181.58 158.40 182.25L158.40 182.25Q158.09 183.10 157.58 183.38Q157.07 183.65 156.14 183.51L156.14 183.51ZM174.92 175.62L193.40 175.62L193.40 177.60Q193.40 178.49 193.22 179.04Q193.03 179.58 192.85 179.95L192.85 179.95L182.71 200.82Q182.39 201.47 181.82 201.92Q181.25 202.38 180.29 202.38L180.29 202.38L176.97 202.38L187.32 181.93Q187.67 181.30 188.01 180.78Q188.35 180.25 188.78 179.77L188.78 179.77L175.97 179.77Q175.55 179.77 175.23 179.45Q174.92 179.14 174.92 178.71L174.92 178.71L174.92 175.62ZM205.39 199.10L205.39 199.10Q206.52 199.10 207.37 198.78Q208.22 198.45 208.80 197.88Q209.39 197.31 209.68 196.51Q209.98 195.72 209.98 194.79L209.98 194.79Q209.98 192.59 208.76 191.46Q207.54 190.33 205.39 190.33L205.39 190.33Q203.24 190.33 202.02 191.46Q200.80 192.59 200.80 194.79L200.80 194.79Q200.80 195.72 201.10 196.51Q201.39 197.31 201.98 197.88Q202.56 198.45 203.41 198.78Q204.26 199.10 205.39 199.10ZM205.39 178.77L205.39 178.77Q204.37 178.77 203.63 179.08Q202.89 179.40 202.40 179.93Q201.91 180.45 201.68 181.14Q201.45 181.82 201.45 182.58L201.45 182.58Q201.45 183.38 201.64 184.13Q201.84 184.87 202.30 185.46Q202.76 186.04 203.52 186.39Q204.28 186.74 205.39 186.74L205.39 186.74Q206.50 186.74 207.26 186.39Q208.02 186.04 208.48 185.46Q208.94 184.87 209.14 184.13Q209.33 183.38 209.33 182.58L209.33 182.58Q209.33 181.82 209.09 181.14Q208.85 180.45 208.37 179.93Q207.89 179.40 207.15 179.08Q206.41 178.77 205.39 178.77ZM209.90 188.43L209.90 188.43Q212.35 189.22 213.51 190.86Q214.68 192.50 214.68 194.86L214.68 194.86Q214.68 196.64 214.00 198.08Q213.33 199.53 212.11 200.54Q210.88 201.56 209.17 202.12Q207.46 202.67 205.39 202.67L205.39 202.67Q203.32 202.67 201.61 202.12Q199.90 201.56 198.67 200.54Q197.45 199.53 196.78 198.08Q196.10 196.64 196.10 194.86L196.10 194.86Q196.10 192.50 197.27 190.86Q198.43 189.22 200.88 188.43L200.88 188.43Q198.93 187.61 197.96 186.11Q196.99 184.62 196.99 182.51L196.99 182.51Q196.99 180.99 197.61 179.68Q198.23 178.36 199.34 177.39Q200.45 176.42 201.99 175.87Q203.54 175.33 205.39 175.33L205.39 175.33Q207.24 175.33 208.78 175.87Q210.33 176.42 211.44 177.39Q212.55 178.36 213.17 179.68Q213.79 180.99 213.79 182.51L213.79 182.51Q213.79 184.62 212.82 186.11Q211.85 187.61 209.90 188.43Z" fill="#2B3945"/></svg>